<svg width="1200" height="400" viewBox="0 0 1200 400" fill="none" xmlns="http://www.w3.org/2000/svg" role="img" aria-labelledby="t">
  <title id="t">Louis Miguel Bernal — Quant &amp; AI Engineer</title>

  <!-- ground -->
  <rect x="1" y="1" width="1198" height="398" rx="20" fill="#0A0A0A" stroke="#262626"/>

  <!-- registration marks -->
  <g stroke="#333333" stroke-width="1">
    <path d="M39 44H49M44 39V49"/>
    <path d="M1151 44H1161M1156 39V49"/>
    <path d="M39 356H49M44 351V361"/>
    <path d="M1151 356H1161M1156 351V361"/>
  </g>

  <!-- kicker row -->
  <text x="64" y="76" font-family="'Cascadia Code','SF Mono','JetBrains Mono',Consolas,Menlo,monospace" font-size="12" letter-spacing="3.5" fill="#A3A3A3">QUANT &amp; AI ENGINEER</text>
  <text x="1136" y="76" text-anchor="end" font-family="'Cascadia Code','SF Mono','JetBrains Mono',Consolas,Menlo,monospace" font-size="12" letter-spacing="3.5" fill="#737373">MANILA · SYDNEY</text>
  <line x1="64" y1="96" x2="1136" y2="96" stroke="#262626"/>

  <!-- sparkline motif -->
  <g>
    <line x1="740" y1="140" x2="1136" y2="140" stroke="#1C1C1C"/>
    <line x1="740" y1="180" x2="1136" y2="180" stroke="#1C1C1C"/>
    <line x1="740" y1="220" x2="1136" y2="220" stroke="#1C1C1C"/>
    <g stroke="#262626">
      <line x1="740" y1="226" x2="740" y2="231"/>
      <line x1="806" y1="226" x2="806" y2="231"/>
      <line x1="872" y1="226" x2="872" y2="231"/>
      <line x1="938" y1="226" x2="938" y2="231"/>
      <line x1="1004" y1="226" x2="1004" y2="231"/>
      <line x1="1070" y1="226" x2="1070" y2="231"/>
      <line x1="1136" y1="226" x2="1136" y2="231"/>
    </g>
    <path d="M740 222 L770 214 L800 224 L830 200 L860 207 L890 186 L920 193 L950 168 L980 176 L1010 152 L1040 161 L1070 136 L1100 144 L1136 120 L1136 231 L740 231 Z" fill="#FAFAFA" fill-opacity="0.025"/>
    <path d="M740 222 L770 214 L800 224 L830 200 L860 207 L890 186 L920 193 L950 168 L980 176 L1010 152 L1040 161 L1070 136 L1100 144 L1136 120" stroke="#525252" stroke-width="1.5" stroke-linejoin="round" stroke-linecap="round"/>
    <circle cx="1136" cy="120" r="7" stroke="#404040"/>
    <circle cx="1136" cy="120" r="3" fill="#FAFAFA"/>
  </g>

  <!-- name -->
  <text x="64" y="192" font-family="Georgia,'Iowan Old Style','Times New Roman',serif" font-size="64" fill="#FAFAFA">Louis Miguel <tspan font-style="italic">Bernal</tspan></text>
  <text x="64" y="240" font-family="Inter,'Segoe UI',Helvetica,Arial,sans-serif" font-size="16" fill="#A3A3A3">Production ML pipelines · NLP-driven trading models · institutional analytics</text>

  <!-- spec row -->
  <line x1="64" y1="296" x2="1136" y2="296" stroke="#262626"/>
  <g font-family="'Cascadia Code','SF Mono','JetBrains Mono',Consolas,Menlo,monospace" font-size="10" letter-spacing="2.5" fill="#737373">
    <text x="64" y="330">FOCUS</text>
    <text x="475" y="330">NOW</text>
    <text x="830" y="330">EDUCATION</text>
  </g>
  <g font-family="Inter,'Segoe UI',Helvetica,Arial,sans-serif" font-size="15" fill="#D4D4D4">
    <text x="64" y="356">Quantitative &amp; AI systems</text>
    <text x="475" y="356">FloatInfinity — Sydney</text>
    <text x="830" y="356">B.S. Computer Science · DLSU-D</text>
  </g>
  <line x1="445" y1="318" x2="445" y2="360" stroke="#1F1F1F"/>
  <line x1="800" y1="318" x2="800" y2="360" stroke="#1F1F1F"/>
</svg>
