<svg width="1000" height="488" viewBox="0 0 1000 488" xmlns="http://www.w3.org/2000/svg" role="img" aria-label="Technical stack by domain"><rect x="1" y="1" width="998" height="486" rx="18" fill="#0A0A0A" stroke="rgba(255,255,255,0.1)"/><rect x="14" y="14" width="972" height="460" rx="13" fill="#0E0E0E" stroke="rgba(255,255,255,0.05)"/><text x="30" y="46" font-family="'Cascadia Code','JetBrains Mono',Consolas,monospace" font-size="12" letter-spacing="3.5" fill="#767575">TECHNICAL STACK</text><line x1="30" y1="56" x2="970" y2="56" stroke="rgba(255,255,255,0.06)"/><rect x="30" y="61" width="11" height="11" rx="2" fill="#16C784"/><text x="50" y="71" font-family="'Cascadia Code','JetBrains Mono',Consolas,monospace" font-size="12" letter-spacing="2.5" fill="#16C784">AI / MACHINE LEARNING</text><g><rect x="30" y="90" width="85" height="30" rx="8" fill="rgba(22,199,132,0.08)" stroke="rgba(22,199,132,0.32)"/><circle cx="45" cy="105" r="3" fill="#16C784"><animate attributeName="opacity" values="1;0.35;1" dur="2.6s" begin="-0.00s" repeatCount="indefinite"/></circle><text x="56" y="110" font-family="Inter,'Segoe UI',Helvetica,Arial,sans-serif" font-size="13" fill="#E7E5E4">PyTorch</text></g><g><rect x="124" y="90" width="108" height="30" rx="8" fill="rgba(22,199,132,0.08)" stroke="rgba(22,199,132,0.32)"/><circle cx="139" cy="105" r="3" fill="#16C784"><animate attributeName="opacity" values="1;0.35;1" dur="2.6s" begin="-0.13s" repeatCount="indefinite"/></circle><text x="150" y="110" font-family="Inter,'Segoe UI',Helvetica,Arial,sans-serif" font-size="13" fill="#E7E5E4">TensorFlow</text></g><g><rect x="241" y="90" width="122" height="30" rx="8" fill="rgba(22,199,132,0.08)" stroke="rgba(22,199,132,0.32)"/><circle cx="256" cy="105" r="3" fill="#16C784"><animate attributeName="opacity" values="1;0.35;1" dur="2.6s" begin="-0.26s" repeatCount="indefinite"/></circle><text x="267" y="110" font-family="Inter,'Segoe UI',Helvetica,Arial,sans-serif" font-size="13" fill="#E7E5E4">Scikit-learn</text></g><g><rect x="372" y="90" width="100" height="30" rx="8" fill="rgba(22,199,132,0.08)" stroke="rgba(22,199,132,0.32)"/><circle cx="387" cy="105" r="3" fill="#16C784"><animate attributeName="opacity" values="1;0.35;1" dur="2.6s" begin="-0.39s" repeatCount="indefinite"/></circle><text x="398" y="110" font-family="Inter,'Segoe UI',Helvetica,Arial,sans-serif" font-size="13" fill="#E7E5E4">LangChain</text></g><g><rect x="481" y="90" width="78" height="30" rx="8" fill="rgba(22,199,132,0.08)" stroke="rgba(22,199,132,0.32)"/><circle cx="496" cy="105" r="3" fill="#16C784"><animate attributeName="opacity" values="1;0.35;1" dur="2.6s" begin="-0.52s" repeatCount="indefinite"/></circle><text x="507" y="110" font-family="Inter,'Segoe UI',Helvetica,Arial,sans-serif" font-size="13" fill="#E7E5E4">Ollama</text></g><g><rect x="568" y="90" width="78" height="30" rx="8" fill="rgba(22,199,132,0.08)" stroke="rgba(22,199,132,0.32)"/><circle cx="583" cy="105" r="3" fill="#16C784"><animate attributeName="opacity" values="1;0.35;1" dur="2.6s" begin="-0.65s" repeatCount="indefinite"/></circle><text x="594" y="110" font-family="Inter,'Segoe UI',Helvetica,Arial,sans-serif" font-size="13" fill="#E7E5E4">OpenCV</text></g><g><rect x="656" y="90" width="122" height="30" rx="8" fill="rgba(22,199,132,0.08)" stroke="rgba(22,199,132,0.32)"/><circle cx="670" cy="105" r="3" fill="#16C784"><animate attributeName="opacity" values="1;0.35;1" dur="2.6s" begin="-0.78s" repeatCount="indefinite"/></circle><text x="682" y="110" font-family="Inter,'Segoe UI',Helvetica,Arial,sans-serif" font-size="13" fill="#E7E5E4">Hugging Face</text></g><g><rect x="787" y="90" width="71" height="30" rx="8" fill="rgba(22,199,132,0.08)" stroke="rgba(22,199,132,0.32)"/><circle cx="802" cy="105" r="3" fill="#16C784"><animate attributeName="opacity" values="1;0.35;1" dur="2.6s" begin="-0.91s" repeatCount="indefinite"/></circle><text x="813" y="110" font-family="Inter,'Segoe UI',Helvetica,Arial,sans-serif" font-size="13" fill="#E7E5E4">FAISS</text></g><g><rect x="866" y="90" width="63" height="30" rx="8" fill="rgba(22,199,132,0.08)" stroke="rgba(22,199,132,0.32)"/><circle cx="881" cy="105" r="3" fill="#16C784"><animate attributeName="opacity" values="1;0.35;1" dur="2.6s" begin="-1.04s" repeatCount="indefinite"/></circle><text x="892" y="110" font-family="Inter,'Segoe UI',Helvetica,Arial,sans-serif" font-size="13" fill="#E7E5E4">Groq</text></g><rect x="30" y="129" width="11" height="11" rx="2" fill="#22D3EE"/><text x="50" y="139" font-family="'Cascadia Code','JetBrains Mono',Consolas,monospace" font-size="12" letter-spacing="2.5" fill="#22D3EE">MODELING &amp; METHODS</text><g><rect x="30" y="158" width="63" height="30" rx="8" fill="rgba(34,211,238,0.08)" stroke="rgba(34,211,238,0.32)"/><circle cx="45" cy="173" r="3" fill="#22D3EE"><animate attributeName="opacity" values="1;0.35;1" dur="2.6s" begin="-1.17s" repeatCount="indefinite"/></circle><text x="56" y="178" font-family="Inter,'Segoe UI',Helvetica,Arial,sans-serif" font-size="13" fill="#E7E5E4">LSTM</text></g><g><rect x="102" y="158" width="85" height="30" rx="8" fill="rgba(34,211,238,0.08)" stroke="rgba(34,211,238,0.32)"/><circle cx="117" cy="173" r="3" fill="#22D3EE"><animate attributeName="opacity" values="1;0.35;1" dur="2.6s" begin="-1.30s" repeatCount="indefinite"/></circle><text x="128" y="178" font-family="Inter,'Segoe UI',Helvetica,Arial,sans-serif" font-size="13" fill="#E7E5E4">XGBoost</text></g><g><rect x="197" y="158" width="93" height="30" rx="8" fill="rgba(34,211,238,0.08)" stroke="rgba(34,211,238,0.32)"/><circle cx="212" cy="173" r="3" fill="#22D3EE"><animate attributeName="opacity" values="1;0.35;1" dur="2.6s" begin="-1.43s" repeatCount="indefinite"/></circle><text x="223" y="178" font-family="Inter,'Segoe UI',Helvetica,Arial,sans-serif" font-size="13" fill="#E7E5E4">LightGBM</text></g><g><rect x="299" y="158" width="93" height="30" rx="8" fill="rgba(34,211,238,0.08)" stroke="rgba(34,211,238,0.32)"/><circle cx="314" cy="173" r="3" fill="#22D3EE"><animate attributeName="opacity" values="1;0.35;1" dur="2.6s" begin="-1.56s" repeatCount="indefinite"/></circle><text x="325" y="178" font-family="Inter,'Segoe UI',Helvetica,Arial,sans-serif" font-size="13" fill="#E7E5E4">CatBoost</text></g><g><rect x="400" y="158" width="85" height="30" rx="8" fill="rgba(34,211,238,0.08)" stroke="rgba(34,211,238,0.32)"/><circle cx="415" cy="173" r="3" fill="#22D3EE"><animate attributeName="opacity" values="1;0.35;1" dur="2.6s" begin="-1.69s" repeatCount="indefinite"/></circle><text x="426" y="178" font-family="Inter,'Segoe UI',Helvetica,Arial,sans-serif" font-size="13" fill="#E7E5E4">K-Means</text></g><g><rect x="495" y="158" width="56" height="30" rx="8" fill="rgba(34,211,238,0.08)" stroke="rgba(34,211,238,0.32)"/><circle cx="510" cy="173" r="3" fill="#22D3EE"><animate attributeName="opacity" values="1;0.35;1" dur="2.6s" begin="-1.82s" repeatCount="indefinite"/></circle><text x="521" y="178" font-family="Inter,'Segoe UI',Helvetica,Arial,sans-serif" font-size="13" fill="#E7E5E4">PCA</text></g><g><rect x="560" y="158" width="71" height="30" rx="8" fill="rgba(34,211,238,0.08)" stroke="rgba(34,211,238,0.32)"/><circle cx="575" cy="173" r="3" fill="#22D3EE"><animate attributeName="opacity" values="1;0.35;1" dur="2.6s" begin="-1.95s" repeatCount="indefinite"/></circle><text x="586" y="178" font-family="Inter,'Segoe UI',Helvetica,Arial,sans-serif" font-size="13" fill="#E7E5E4">t-SNE</text></g><g><rect x="640" y="158" width="63" height="30" rx="8" fill="rgba(34,211,238,0.08)" stroke="rgba(34,211,238,0.32)"/><circle cx="655" cy="173" r="3" fill="#22D3EE"><animate attributeName="opacity" values="1;0.35;1" dur="2.6s" begin="-2.08s" repeatCount="indefinite"/></circle><text x="666" y="178" font-family="Inter,'Segoe UI',Helvetica,Arial,sans-serif" font-size="13" fill="#E7E5E4">UMAP</text></g><g><rect x="712" y="158" width="115" height="30" rx="8" fill="rgba(34,211,238,0.08)" stroke="rgba(34,211,238,0.32)"/><circle cx="727" cy="173" r="3" fill="#22D3EE"><animate attributeName="opacity" values="1;0.35;1" dur="2.6s" begin="-2.21s" repeatCount="indefinite"/></circle><text x="738" y="178" font-family="Inter,'Segoe UI',Helvetica,Arial,sans-serif" font-size="13" fill="#E7E5E4">Monte Carlo</text></g><rect x="30" y="197" width="11" height="11" rx="2" fill="#60A5FA"/><text x="50" y="207" font-family="'Cascadia Code','JetBrains Mono',Consolas,monospace" font-size="12" letter-spacing="2.5" fill="#60A5FA">DATA &amp; BACKEND</text><g><rect x="30" y="226" width="78" height="30" rx="8" fill="rgba(96,165,250,0.08)" stroke="rgba(96,165,250,0.32)"/><circle cx="45" cy="241" r="3" fill="#60A5FA"><animate attributeName="opacity" values="1;0.35;1" dur="2.6s" begin="-2.34s" repeatCount="indefinite"/></circle><text x="56" y="246" font-family="Inter,'Segoe UI',Helvetica,Arial,sans-serif" font-size="13" fill="#E7E5E4">Python</text></g><g><rect x="117" y="226" width="56" height="30" rx="8" fill="rgba(96,165,250,0.08)" stroke="rgba(96,165,250,0.32)"/><circle cx="132" cy="241" r="3" fill="#60A5FA"><animate attributeName="opacity" values="1;0.35;1" dur="2.6s" begin="-2.47s" repeatCount="indefinite"/></circle><text x="143" y="246" font-family="Inter,'Segoe UI',Helvetica,Arial,sans-serif" font-size="13" fill="#E7E5E4">SQL</text></g><g><rect x="182" y="226" width="85" height="30" rx="8" fill="rgba(96,165,250,0.08)" stroke="rgba(96,165,250,0.32)"/><circle cx="197" cy="241" r="3" fill="#60A5FA"><animate attributeName="opacity" values="1;0.35;1" dur="2.6s" begin="-2.60s" repeatCount="indefinite"/></circle><text x="208" y="246" font-family="Inter,'Segoe UI',Helvetica,Arial,sans-serif" font-size="13" fill="#E7E5E4">FastAPI</text></g><g><rect x="277" y="226" width="108" height="30" rx="8" fill="rgba(96,165,250,0.08)" stroke="rgba(96,165,250,0.32)"/><circle cx="292" cy="241" r="3" fill="#60A5FA"><animate attributeName="opacity" values="1;0.35;1" dur="2.6s" begin="-2.73s" repeatCount="indefinite"/></circle><text x="303" y="246" font-family="Inter,'Segoe UI',Helvetica,Arial,sans-serif" font-size="13" fill="#E7E5E4">PostgreSQL</text></g><g><rect x="393" y="226" width="85" height="30" rx="8" fill="rgba(96,165,250,0.08)" stroke="rgba(96,165,250,0.32)"/><circle cx="408" cy="241" r="3" fill="#60A5FA"><animate attributeName="opacity" values="1;0.35;1" dur="2.6s" begin="-2.86s" repeatCount="indefinite"/></circle><text x="419" y="246" font-family="Inter,'Segoe UI',Helvetica,Arial,sans-serif" font-size="13" fill="#E7E5E4">MongoDB</text></g><g><rect x="488" y="226" width="71" height="30" rx="8" fill="rgba(96,165,250,0.08)" stroke="rgba(96,165,250,0.32)"/><circle cx="503" cy="241" r="3" fill="#60A5FA"><animate attributeName="opacity" values="1;0.35;1" dur="2.6s" begin="-2.99s" repeatCount="indefinite"/></circle><text x="514" y="246" font-family="Inter,'Segoe UI',Helvetica,Arial,sans-serif" font-size="13" fill="#E7E5E4">Redis</text></g><g><rect x="567" y="226" width="78" height="30" rx="8" fill="rgba(96,165,250,0.08)" stroke="rgba(96,165,250,0.32)"/><circle cx="582" cy="241" r="3" fill="#60A5FA"><animate attributeName="opacity" values="1;0.35;1" dur="2.6s" begin="-3.12s" repeatCount="indefinite"/></circle><text x="593" y="246" font-family="Inter,'Segoe UI',Helvetica,Arial,sans-serif" font-size="13" fill="#E7E5E4">Pandas</text></g><g><rect x="654" y="226" width="71" height="30" rx="8" fill="rgba(96,165,250,0.08)" stroke="rgba(96,165,250,0.32)"/><circle cx="669" cy="241" r="3" fill="#60A5FA"><animate attributeName="opacity" values="1;0.35;1" dur="2.6s" begin="-3.25s" repeatCount="indefinite"/></circle><text x="680" y="246" font-family="Inter,'Segoe UI',Helvetica,Arial,sans-serif" font-size="13" fill="#E7E5E4">NumPy</text></g><g><rect x="734" y="226" width="100" height="30" rx="8" fill="rgba(96,165,250,0.08)" stroke="rgba(96,165,250,0.32)"/><circle cx="749" cy="241" r="3" fill="#60A5FA"><animate attributeName="opacity" values="1;0.35;1" dur="2.6s" begin="-3.38s" repeatCount="indefinite"/></circle><text x="760" y="246" font-family="Inter,'Segoe UI',Helvetica,Arial,sans-serif" font-size="13" fill="#E7E5E4">Azure ETL</text></g><rect x="30" y="265" width="11" height="11" rx="2" fill="#FB923C"/><text x="50" y="275" font-family="'Cascadia Code','JetBrains Mono',Consolas,monospace" font-size="12" letter-spacing="2.5" fill="#FB923C">ANALYTICS &amp; VIZ</text><g><rect x="30" y="294" width="93" height="30" rx="8" fill="rgba(251,146,60,0.08)" stroke="rgba(251,146,60,0.32)"/><circle cx="45" cy="309" r="3" fill="#FB923C"><animate attributeName="opacity" values="1;0.35;1" dur="2.6s" begin="-3.51s" repeatCount="indefinite"/></circle><text x="56" y="314" font-family="Inter,'Segoe UI',Helvetica,Arial,sans-serif" font-size="13" fill="#E7E5E4">Power BI</text></g><g><rect x="132" y="294" width="85" height="30" rx="8" fill="rgba(251,146,60,0.08)" stroke="rgba(251,146,60,0.32)"/><circle cx="147" cy="309" r="3" fill="#FB923C"><animate attributeName="opacity" values="1;0.35;1" dur="2.6s" begin="-3.64s" repeatCount="indefinite"/></circle><text x="158" y="314" font-family="Inter,'Segoe UI',Helvetica,Arial,sans-serif" font-size="13" fill="#E7E5E4">Tableau</text></g><g><rect x="226" y="294" width="78" height="30" rx="8" fill="rgba(251,146,60,0.08)" stroke="rgba(251,146,60,0.32)"/><circle cx="241" cy="309" r="3" fill="#FB923C"><animate attributeName="opacity" values="1;0.35;1" dur="2.6s" begin="-3.77s" repeatCount="indefinite"/></circle><text x="252" y="314" font-family="Inter,'Segoe UI',Helvetica,Arial,sans-serif" font-size="13" fill="#E7E5E4">Plotly</text></g><g><rect x="313" y="294" width="108" height="30" rx="8" fill="rgba(251,146,60,0.08)" stroke="rgba(251,146,60,0.32)"/><circle cx="328" cy="309" r="3" fill="#FB923C"><animate attributeName="opacity" values="1;0.35;1" dur="2.6s" begin="-3.90s" repeatCount="indefinite"/></circle><text x="339" y="314" font-family="Inter,'Segoe UI',Helvetica,Arial,sans-serif" font-size="13" fill="#E7E5E4">Matplotlib</text></g><g><rect x="430" y="294" width="85" height="30" rx="8" fill="rgba(251,146,60,0.08)" stroke="rgba(251,146,60,0.32)"/><circle cx="445" cy="309" r="3" fill="#FB923C"><animate attributeName="opacity" values="1;0.35;1" dur="2.6s" begin="-4.03s" repeatCount="indefinite"/></circle><text x="456" y="314" font-family="Inter,'Segoe UI',Helvetica,Arial,sans-serif" font-size="13" fill="#E7E5E4">Seaborn</text></g><g><rect x="524" y="294" width="71" height="30" rx="8" fill="rgba(251,146,60,0.08)" stroke="rgba(251,146,60,0.32)"/><circle cx="539" cy="309" r="3" fill="#FB923C"><animate attributeName="opacity" values="1;0.35;1" dur="2.6s" begin="-4.16s" repeatCount="indefinite"/></circle><text x="550" y="314" font-family="Inter,'Segoe UI',Helvetica,Arial,sans-serif" font-size="13" fill="#E7E5E4">Excel</text></g><rect x="30" y="333" width="11" height="11" rx="2" fill="#A78BFA"/><text x="50" y="343" font-family="'Cascadia Code','JetBrains Mono',Consolas,monospace" font-size="12" letter-spacing="2.5" fill="#A78BFA">FRONTEND</text><g><rect x="30" y="362" width="71" height="30" rx="8" fill="rgba(167,139,250,0.08)" stroke="rgba(167,139,250,0.32)"/><circle cx="45" cy="377" r="3" fill="#A78BFA"><animate attributeName="opacity" values="1;0.35;1" dur="2.6s" begin="-4.29s" repeatCount="indefinite"/></circle><text x="56" y="382" font-family="Inter,'Segoe UI',Helvetica,Arial,sans-serif" font-size="13" fill="#E7E5E4">React</text></g><g><rect x="110" y="362" width="85" height="30" rx="8" fill="rgba(167,139,250,0.08)" stroke="rgba(167,139,250,0.32)"/><circle cx="125" cy="377" r="3" fill="#A78BFA"><animate attributeName="opacity" values="1;0.35;1" dur="2.6s" begin="-4.42s" repeatCount="indefinite"/></circle><text x="136" y="382" font-family="Inter,'Segoe UI',Helvetica,Arial,sans-serif" font-size="13" fill="#E7E5E4">Next.js</text></g><g><rect x="204" y="362" width="108" height="30" rx="8" fill="rgba(167,139,250,0.08)" stroke="rgba(167,139,250,0.32)"/><circle cx="219" cy="377" r="3" fill="#A78BFA"><animate attributeName="opacity" values="1;0.35;1" dur="2.6s" begin="-4.55s" repeatCount="indefinite"/></circle><text x="230" y="382" font-family="Inter,'Segoe UI',Helvetica,Arial,sans-serif" font-size="13" fill="#E7E5E4">TypeScript</text></g><g><rect x="321" y="362" width="122" height="30" rx="8" fill="rgba(167,139,250,0.08)" stroke="rgba(167,139,250,0.32)"/><circle cx="336" cy="377" r="3" fill="#A78BFA"><animate attributeName="opacity" values="1;0.35;1" dur="2.6s" begin="-4.68s" repeatCount="indefinite"/></circle><text x="347" y="382" font-family="Inter,'Segoe UI',Helvetica,Arial,sans-serif" font-size="13" fill="#E7E5E4">Tailwind CSS</text></g><g><rect x="452" y="362" width="130" height="30" rx="8" fill="rgba(167,139,250,0.08)" stroke="rgba(167,139,250,0.32)"/><circle cx="467" cy="377" r="3" fill="#A78BFA"><animate attributeName="opacity" values="1;0.35;1" dur="2.6s" begin="-4.81s" repeatCount="indefinite"/></circle><text x="478" y="382" font-family="Inter,'Segoe UI',Helvetica,Arial,sans-serif" font-size="13" fill="#E7E5E4">Framer Motion</text></g><g><rect x="590" y="362" width="122" height="30" rx="8" fill="rgba(167,139,250,0.08)" stroke="rgba(167,139,250,0.32)"/><circle cx="605" cy="377" r="3" fill="#A78BFA"><animate attributeName="opacity" values="1;0.35;1" dur="2.6s" begin="-4.94s" repeatCount="indefinite"/></circle><text x="616" y="382" font-family="Inter,'Segoe UI',Helvetica,Arial,sans-serif" font-size="13" fill="#E7E5E4">React Native</text></g><rect x="30" y="401" width="11" height="11" rx="2" fill="#C6C6C7"/><text x="50" y="411" font-family="'Cascadia Code','JetBrains Mono',Consolas,monospace" font-size="12" letter-spacing="2.5" fill="#C6C6C7">DEVOPS &amp; TOOLING</text><g><rect x="30" y="430" width="56" height="30" rx="8" fill="rgba(198,198,199,0.08)" stroke="rgba(198,198,199,0.32)"/><circle cx="45" cy="445" r="3" fill="#C6C6C7"><animate attributeName="opacity" values="1;0.35;1" dur="2.6s" begin="-5.07s" repeatCount="indefinite"/></circle><text x="56" y="450" font-family="Inter,'Segoe UI',Helvetica,Arial,sans-serif" font-size="13" fill="#E7E5E4">Git</text></g><g><rect x="95" y="430" width="78" height="30" rx="8" fill="rgba(198,198,199,0.08)" stroke="rgba(198,198,199,0.32)"/><circle cx="110" cy="445" r="3" fill="#C6C6C7"><animate attributeName="opacity" values="1;0.35;1" dur="2.6s" begin="-5.20s" repeatCount="indefinite"/></circle><text x="121" y="450" font-family="Inter,'Segoe UI',Helvetica,Arial,sans-serif" font-size="13" fill="#E7E5E4">GitHub</text></g><g><rect x="182" y="430" width="78" height="30" rx="8" fill="rgba(198,198,199,0.08)" stroke="rgba(198,198,199,0.32)"/><circle cx="197" cy="445" r="3" fill="#C6C6C7"><animate attributeName="opacity" values="1;0.35;1" dur="2.6s" begin="-5.33s" repeatCount="indefinite"/></circle><text x="208" y="450" font-family="Inter,'Segoe UI',Helvetica,Arial,sans-serif" font-size="13" fill="#E7E5E4">Docker</text></g><g><rect x="269" y="430" width="78" height="30" rx="8" fill="rgba(198,198,199,0.08)" stroke="rgba(198,198,199,0.32)"/><circle cx="284" cy="445" r="3" fill="#C6C6C7"><animate attributeName="opacity" values="1;0.35;1" dur="2.6s" begin="-5.46s" repeatCount="indefinite"/></circle><text x="295" y="450" font-family="Inter,'Segoe UI',Helvetica,Arial,sans-serif" font-size="13" fill="#E7E5E4">Vercel</text></g><g><rect x="356" y="430" width="78" height="30" rx="8" fill="rgba(198,198,199,0.08)" stroke="rgba(198,198,199,0.32)"/><circle cx="371" cy="445" r="3" fill="#C6C6C7"><animate attributeName="opacity" values="1;0.35;1" dur="2.6s" begin="-5.59s" repeatCount="indefinite"/></circle><text x="382" y="450" font-family="Inter,'Segoe UI',Helvetica,Arial,sans-serif" font-size="13" fill="#E7E5E4">MLflow</text></g><g><rect x="443" y="430" width="85" height="30" rx="8" fill="rgba(198,198,199,0.08)" stroke="rgba(198,198,199,0.32)"/><circle cx="458" cy="445" r="3" fill="#C6C6C7"><animate attributeName="opacity" values="1;0.35;1" dur="2.6s" begin="-5.72s" repeatCount="indefinite"/></circle><text x="469" y="450" font-family="Inter,'Segoe UI',Helvetica,Arial,sans-serif" font-size="13" fill="#E7E5E4">Jupyter</text></g><g><rect x="538" y="430" width="100" height="30" rx="8" fill="rgba(198,198,199,0.08)" stroke="rgba(198,198,199,0.32)"/><circle cx="553" cy="445" r="3" fill="#C6C6C7"><animate attributeName="opacity" values="1;0.35;1" dur="2.6s" begin="-5.85s" repeatCount="indefinite"/></circle><text x="564" y="450" font-family="Inter,'Segoe UI',Helvetica,Arial,sans-serif" font-size="13" fill="#E7E5E4">Streamlit</text></g></svg>