<svg width="1000" height="560" viewBox="0 0 1000 560" xmlns="http://www.w3.org/2000/svg" role="img" aria-label="Technical stack by domain"><rect x="1" y="1" width="998" height="558" rx="18" fill="#0A0A0A" stroke="rgba(255,255,255,0.1)"/><rect x="14" y="14" width="972" height="532" rx="13" fill="#0E0E0E" stroke="rgba(255,255,255,0.05)"/><text x="32" y="50" font-family="'Cascadia Code','JetBrains Mono',Consolas,monospace" font-size="12" letter-spacing="3.5" fill="#6B6B6C">TECHNICAL STACK</text><line x1="32" y1="60" x2="968" y2="60" stroke="rgba(255,255,255,0.06)"/><text x="32" y="76" font-family="'Cascadia Code','JetBrains Mono',Consolas,monospace" font-size="12.5" letter-spacing="2.5" fill="#D4D4D4">AI / MACHINE LEARNING</text><text x="968" y="76" text-anchor="end" font-family="'Cascadia Code','JetBrains Mono',Consolas,monospace" font-size="10.5" letter-spacing="1.5" fill="#6B6B6C">Modeling · training · deployment</text><line x1="32" y1="86" x2="968" y2="86" stroke="rgba(255,255,255,0.06)"/><rect x="32" y="104" width="83" height="30" rx="8" fill="rgba(255,255,255,0.03)" stroke="rgba(255,255,255,0.12)"/><circle cx="46" cy="119" r="2" fill="#8A8A8B"/><text x="56" y="124" font-family="Inter,'Segoe UI',Helvetica,Arial,sans-serif" font-size="13" fill="#E7E5E4">PyTorch</text><rect x="124" y="104" width="106" height="30" rx="8" fill="rgba(255,255,255,0.03)" stroke="rgba(255,255,255,0.12)"/><circle cx="138" cy="119" r="2" fill="#8A8A8B"/><text x="148" y="124" font-family="Inter,'Segoe UI',Helvetica,Arial,sans-serif" font-size="13" fill="#E7E5E4">TensorFlow</text><rect x="239" y="104" width="120" height="30" rx="8" fill="rgba(255,255,255,0.03)" stroke="rgba(255,255,255,0.12)"/><circle cx="253" cy="119" r="2" fill="#8A8A8B"/><text x="263" y="124" font-family="Inter,'Segoe UI',Helvetica,Arial,sans-serif" font-size="13" fill="#E7E5E4">Scikit-learn</text><rect x="368" y="104" width="98" height="30" rx="8" fill="rgba(255,255,255,0.03)" stroke="rgba(255,255,255,0.12)"/><circle cx="382" cy="119" r="2" fill="#8A8A8B"/><text x="392" y="124" font-family="Inter,'Segoe UI',Helvetica,Arial,sans-serif" font-size="13" fill="#E7E5E4">LangChain</text><rect x="475" y="104" width="76" height="30" rx="8" fill="rgba(255,255,255,0.03)" stroke="rgba(255,255,255,0.12)"/><circle cx="489" cy="119" r="2" fill="#8A8A8B"/><text x="499" y="124" font-family="Inter,'Segoe UI',Helvetica,Arial,sans-serif" font-size="13" fill="#E7E5E4">Ollama</text><rect x="560" y="104" width="76" height="30" rx="8" fill="rgba(255,255,255,0.03)" stroke="rgba(255,255,255,0.12)"/><circle cx="574" cy="119" r="2" fill="#8A8A8B"/><text x="584" y="124" font-family="Inter,'Segoe UI',Helvetica,Arial,sans-serif" font-size="13" fill="#E7E5E4">OpenCV</text><rect x="646" y="104" width="120" height="30" rx="8" fill="rgba(255,255,255,0.03)" stroke="rgba(255,255,255,0.12)"/><circle cx="660" cy="119" r="2" fill="#8A8A8B"/><text x="670" y="124" font-family="Inter,'Segoe UI',Helvetica,Arial,sans-serif" font-size="13" fill="#E7E5E4">Hugging Face</text><rect x="775" y="104" width="69" height="30" rx="8" fill="rgba(255,255,255,0.03)" stroke="rgba(255,255,255,0.12)"/><circle cx="789" cy="119" r="2" fill="#8A8A8B"/><text x="799" y="124" font-family="Inter,'Segoe UI',Helvetica,Arial,sans-serif" font-size="13" fill="#E7E5E4">FAISS</text><rect x="852" y="104" width="61" height="30" rx="8" fill="rgba(255,255,255,0.03)" stroke="rgba(255,255,255,0.12)"/><circle cx="866" cy="119" r="2" fill="#8A8A8B"/><text x="876" y="124" font-family="Inter,'Segoe UI',Helvetica,Arial,sans-serif" font-size="13" fill="#E7E5E4">Groq</text><text x="32" y="156" font-family="'Cascadia Code','JetBrains Mono',Consolas,monospace" font-size="12.5" letter-spacing="2.5" fill="#D4D4D4">MODELING &amp; METHODS</text><text x="968" y="156" text-anchor="end" font-family="'Cascadia Code','JetBrains Mono',Consolas,monospace" font-size="10.5" letter-spacing="1.5" fill="#6B6B6C">Sequence · trees · dimensionality</text><line x1="32" y1="166" x2="968" y2="166" stroke="rgba(255,255,255,0.06)"/><rect x="32" y="184" width="61" height="30" rx="8" fill="rgba(255,255,255,0.03)" stroke="rgba(255,255,255,0.12)"/><circle cx="46" cy="199" r="2" fill="#8A8A8B"/><text x="56" y="204" font-family="Inter,'Segoe UI',Helvetica,Arial,sans-serif" font-size="13" fill="#E7E5E4">LSTM</text><rect x="102" y="184" width="83" height="30" rx="8" fill="rgba(255,255,255,0.03)" stroke="rgba(255,255,255,0.12)"/><circle cx="116" cy="199" r="2" fill="#8A8A8B"/><text x="126" y="204" font-family="Inter,'Segoe UI',Helvetica,Arial,sans-serif" font-size="13" fill="#E7E5E4">XGBoost</text><rect x="195" y="184" width="91" height="30" rx="8" fill="rgba(255,255,255,0.03)" stroke="rgba(255,255,255,0.12)"/><circle cx="209" cy="199" r="2" fill="#8A8A8B"/><text x="219" y="204" font-family="Inter,'Segoe UI',Helvetica,Arial,sans-serif" font-size="13" fill="#E7E5E4">LightGBM</text><rect x="295" y="184" width="91" height="30" rx="8" fill="rgba(255,255,255,0.03)" stroke="rgba(255,255,255,0.12)"/><circle cx="309" cy="199" r="2" fill="#8A8A8B"/><text x="319" y="204" font-family="Inter,'Segoe UI',Helvetica,Arial,sans-serif" font-size="13" fill="#E7E5E4">CatBoost</text><rect x="394" y="184" width="83" height="30" rx="8" fill="rgba(255,255,255,0.03)" stroke="rgba(255,255,255,0.12)"/><circle cx="408" cy="199" r="2" fill="#8A8A8B"/><text x="418" y="204" font-family="Inter,'Segoe UI',Helvetica,Arial,sans-serif" font-size="13" fill="#E7E5E4">K-Means</text><rect x="487" y="184" width="54" height="30" rx="8" fill="rgba(255,255,255,0.03)" stroke="rgba(255,255,255,0.12)"/><circle cx="501" cy="199" r="2" fill="#8A8A8B"/><text x="511" y="204" font-family="Inter,'Segoe UI',Helvetica,Arial,sans-serif" font-size="13" fill="#E7E5E4">PCA</text><rect x="550" y="184" width="69" height="30" rx="8" fill="rgba(255,255,255,0.03)" stroke="rgba(255,255,255,0.12)"/><circle cx="564" cy="199" r="2" fill="#8A8A8B"/><text x="574" y="204" font-family="Inter,'Segoe UI',Helvetica,Arial,sans-serif" font-size="13" fill="#E7E5E4">t-SNE</text><rect x="628" y="184" width="61" height="30" rx="8" fill="rgba(255,255,255,0.03)" stroke="rgba(255,255,255,0.12)"/><circle cx="642" cy="199" r="2" fill="#8A8A8B"/><text x="652" y="204" font-family="Inter,'Segoe UI',Helvetica,Arial,sans-serif" font-size="13" fill="#E7E5E4">UMAP</text><rect x="698" y="184" width="113" height="30" rx="8" fill="rgba(255,255,255,0.03)" stroke="rgba(255,255,255,0.12)"/><circle cx="712" cy="199" r="2" fill="#8A8A8B"/><text x="722" y="204" font-family="Inter,'Segoe UI',Helvetica,Arial,sans-serif" font-size="13" fill="#E7E5E4">Monte Carlo</text><text x="32" y="236" font-family="'Cascadia Code','JetBrains Mono',Consolas,monospace" font-size="12.5" letter-spacing="2.5" fill="#D4D4D4">DATA &amp; BACKEND</text><text x="968" y="236" text-anchor="end" font-family="'Cascadia Code','JetBrains Mono',Consolas,monospace" font-size="10.5" letter-spacing="1.5" fill="#6B6B6C">Pipelines · APIs · warehousing</text><line x1="32" y1="246" x2="968" y2="246" stroke="rgba(255,255,255,0.06)"/><rect x="32" y="264" width="76" height="30" rx="8" fill="rgba(255,255,255,0.03)" stroke="rgba(255,255,255,0.12)"/><circle cx="46" cy="279" r="2" fill="#8A8A8B"/><text x="56" y="284" font-family="Inter,'Segoe UI',Helvetica,Arial,sans-serif" font-size="13" fill="#E7E5E4">Python</text><rect x="117" y="264" width="54" height="30" rx="8" fill="rgba(255,255,255,0.03)" stroke="rgba(255,255,255,0.12)"/><circle cx="131" cy="279" r="2" fill="#8A8A8B"/><text x="141" y="284" font-family="Inter,'Segoe UI',Helvetica,Arial,sans-serif" font-size="13" fill="#E7E5E4">SQL</text><rect x="180" y="264" width="83" height="30" rx="8" fill="rgba(255,255,255,0.03)" stroke="rgba(255,255,255,0.12)"/><circle cx="194" cy="279" r="2" fill="#8A8A8B"/><text x="204" y="284" font-family="Inter,'Segoe UI',Helvetica,Arial,sans-serif" font-size="13" fill="#E7E5E4">FastAPI</text><rect x="273" y="264" width="106" height="30" rx="8" fill="rgba(255,255,255,0.03)" stroke="rgba(255,255,255,0.12)"/><circle cx="287" cy="279" r="2" fill="#8A8A8B"/><text x="297" y="284" font-family="Inter,'Segoe UI',Helvetica,Arial,sans-serif" font-size="13" fill="#E7E5E4">PostgreSQL</text><rect x="387" y="264" width="83" height="30" rx="8" fill="rgba(255,255,255,0.03)" stroke="rgba(255,255,255,0.12)"/><circle cx="401" cy="279" r="2" fill="#8A8A8B"/><text x="411" y="284" font-family="Inter,'Segoe UI',Helvetica,Arial,sans-serif" font-size="13" fill="#E7E5E4">MongoDB</text><rect x="480" y="264" width="69" height="30" rx="8" fill="rgba(255,255,255,0.03)" stroke="rgba(255,255,255,0.12)"/><circle cx="494" cy="279" r="2" fill="#8A8A8B"/><text x="504" y="284" font-family="Inter,'Segoe UI',Helvetica,Arial,sans-serif" font-size="13" fill="#E7E5E4">Redis</text><rect x="557" y="264" width="76" height="30" rx="8" fill="rgba(255,255,255,0.03)" stroke="rgba(255,255,255,0.12)"/><circle cx="571" cy="279" r="2" fill="#8A8A8B"/><text x="581" y="284" font-family="Inter,'Segoe UI',Helvetica,Arial,sans-serif" font-size="13" fill="#E7E5E4">Pandas</text><rect x="642" y="264" width="69" height="30" rx="8" fill="rgba(255,255,255,0.03)" stroke="rgba(255,255,255,0.12)"/><circle cx="656" cy="279" r="2" fill="#8A8A8B"/><text x="666" y="284" font-family="Inter,'Segoe UI',Helvetica,Arial,sans-serif" font-size="13" fill="#E7E5E4">NumPy</text><rect x="720" y="264" width="98" height="30" rx="8" fill="rgba(255,255,255,0.03)" stroke="rgba(255,255,255,0.12)"/><circle cx="734" cy="279" r="2" fill="#8A8A8B"/><text x="744" y="284" font-family="Inter,'Segoe UI',Helvetica,Arial,sans-serif" font-size="13" fill="#E7E5E4">Azure ETL</text><text x="32" y="316" font-family="'Cascadia Code','JetBrains Mono',Consolas,monospace" font-size="12.5" letter-spacing="2.5" fill="#D4D4D4">ANALYTICS &amp; VISUALIZATION</text><text x="968" y="316" text-anchor="end" font-family="'Cascadia Code','JetBrains Mono',Consolas,monospace" font-size="10.5" letter-spacing="1.5" fill="#6B6B6C">Dashboards · exploratory work</text><line x1="32" y1="326" x2="968" y2="326" stroke="rgba(255,255,255,0.06)"/><rect x="32" y="344" width="91" height="30" rx="8" fill="rgba(255,255,255,0.03)" stroke="rgba(255,255,255,0.12)"/><circle cx="46" cy="359" r="2" fill="#8A8A8B"/><text x="56" y="364" font-family="Inter,'Segoe UI',Helvetica,Arial,sans-serif" font-size="13" fill="#E7E5E4">Power BI</text><rect x="132" y="344" width="83" height="30" rx="8" fill="rgba(255,255,255,0.03)" stroke="rgba(255,255,255,0.12)"/><circle cx="146" cy="359" r="2" fill="#8A8A8B"/><text x="156" y="364" font-family="Inter,'Segoe UI',Helvetica,Arial,sans-serif" font-size="13" fill="#E7E5E4">Tableau</text><rect x="224" y="344" width="76" height="30" rx="8" fill="rgba(255,255,255,0.03)" stroke="rgba(255,255,255,0.12)"/><circle cx="238" cy="359" r="2" fill="#8A8A8B"/><text x="248" y="364" font-family="Inter,'Segoe UI',Helvetica,Arial,sans-serif" font-size="13" fill="#E7E5E4">Plotly</text><rect x="309" y="344" width="106" height="30" rx="8" fill="rgba(255,255,255,0.03)" stroke="rgba(255,255,255,0.12)"/><circle cx="323" cy="359" r="2" fill="#8A8A8B"/><text x="333" y="364" font-family="Inter,'Segoe UI',Helvetica,Arial,sans-serif" font-size="13" fill="#E7E5E4">Matplotlib</text><rect x="424" y="344" width="83" height="30" rx="8" fill="rgba(255,255,255,0.03)" stroke="rgba(255,255,255,0.12)"/><circle cx="438" cy="359" r="2" fill="#8A8A8B"/><text x="448" y="364" font-family="Inter,'Segoe UI',Helvetica,Arial,sans-serif" font-size="13" fill="#E7E5E4">Seaborn</text><rect x="516" y="344" width="69" height="30" rx="8" fill="rgba(255,255,255,0.03)" stroke="rgba(255,255,255,0.12)"/><circle cx="530" cy="359" r="2" fill="#8A8A8B"/><text x="540" y="364" font-family="Inter,'Segoe UI',Helvetica,Arial,sans-serif" font-size="13" fill="#E7E5E4">Excel</text><text x="32" y="396" font-family="'Cascadia Code','JetBrains Mono',Consolas,monospace" font-size="12.5" letter-spacing="2.5" fill="#D4D4D4">FRONTEND</text><text x="968" y="396" text-anchor="end" font-family="'Cascadia Code','JetBrains Mono',Consolas,monospace" font-size="10.5" letter-spacing="1.5" fill="#6B6B6C">Production interfaces</text><line x1="32" y1="406" x2="968" y2="406" stroke="rgba(255,255,255,0.06)"/><rect x="32" y="424" width="69" height="30" rx="8" fill="rgba(255,255,255,0.03)" stroke="rgba(255,255,255,0.12)"/><circle cx="46" cy="439" r="2" fill="#8A8A8B"/><text x="56" y="444" font-family="Inter,'Segoe UI',Helvetica,Arial,sans-serif" font-size="13" fill="#E7E5E4">React</text><rect x="110" y="424" width="83" height="30" rx="8" fill="rgba(255,255,255,0.03)" stroke="rgba(255,255,255,0.12)"/><circle cx="124" cy="439" r="2" fill="#8A8A8B"/><text x="134" y="444" font-family="Inter,'Segoe UI',Helvetica,Arial,sans-serif" font-size="13" fill="#E7E5E4">Next.js</text><rect x="202" y="424" width="106" height="30" rx="8" fill="rgba(255,255,255,0.03)" stroke="rgba(255,255,255,0.12)"/><circle cx="216" cy="439" r="2" fill="#8A8A8B"/><text x="226" y="444" font-family="Inter,'Segoe UI',Helvetica,Arial,sans-serif" font-size="13" fill="#E7E5E4">TypeScript</text><rect x="317" y="424" width="120" height="30" rx="8" fill="rgba(255,255,255,0.03)" stroke="rgba(255,255,255,0.12)"/><circle cx="331" cy="439" r="2" fill="#8A8A8B"/><text x="341" y="444" font-family="Inter,'Segoe UI',Helvetica,Arial,sans-serif" font-size="13" fill="#E7E5E4">Tailwind CSS</text><rect x="446" y="424" width="128" height="30" rx="8" fill="rgba(255,255,255,0.03)" stroke="rgba(255,255,255,0.12)"/><circle cx="460" cy="439" r="2" fill="#8A8A8B"/><text x="470" y="444" font-family="Inter,'Segoe UI',Helvetica,Arial,sans-serif" font-size="13" fill="#E7E5E4">Framer Motion</text><rect x="582" y="424" width="120" height="30" rx="8" fill="rgba(255,255,255,0.03)" stroke="rgba(255,255,255,0.12)"/><circle cx="596" cy="439" r="2" fill="#8A8A8B"/><text x="606" y="444" font-family="Inter,'Segoe UI',Helvetica,Arial,sans-serif" font-size="13" fill="#E7E5E4">React Native</text><text x="32" y="476" font-family="'Cascadia Code','JetBrains Mono',Consolas,monospace" font-size="12.5" letter-spacing="2.5" fill="#D4D4D4">DEVOPS &amp; TOOLING</text><text x="968" y="476" text-anchor="end" font-family="'Cascadia Code','JetBrains Mono',Consolas,monospace" font-size="10.5" letter-spacing="1.5" fill="#6B6B6C">Ship · iterate · observe</text><line x1="32" y1="486" x2="968" y2="486" stroke="rgba(255,255,255,0.06)"/><rect x="32" y="504" width="54" height="30" rx="8" fill="rgba(255,255,255,0.03)" stroke="rgba(255,255,255,0.12)"/><circle cx="46" cy="519" r="2" fill="#8A8A8B"/><text x="56" y="524" font-family="Inter,'Segoe UI',Helvetica,Arial,sans-serif" font-size="13" fill="#E7E5E4">Git</text><rect x="95" y="504" width="76" height="30" rx="8" fill="rgba(255,255,255,0.03)" stroke="rgba(255,255,255,0.12)"/><circle cx="109" cy="519" r="2" fill="#8A8A8B"/><text x="119" y="524" font-family="Inter,'Segoe UI',Helvetica,Arial,sans-serif" font-size="13" fill="#E7E5E4">GitHub</text><rect x="180" y="504" width="76" height="30" rx="8" fill="rgba(255,255,255,0.03)" stroke="rgba(255,255,255,0.12)"/><circle cx="194" cy="519" r="2" fill="#8A8A8B"/><text x="204" y="524" font-family="Inter,'Segoe UI',Helvetica,Arial,sans-serif" font-size="13" fill="#E7E5E4">Docker</text><rect x="265" y="504" width="76" height="30" rx="8" fill="rgba(255,255,255,0.03)" stroke="rgba(255,255,255,0.12)"/><circle cx="279" cy="519" r="2" fill="#8A8A8B"/><text x="289" y="524" font-family="Inter,'Segoe UI',Helvetica,Arial,sans-serif" font-size="13" fill="#E7E5E4">Vercel</text><rect x="350" y="504" width="76" height="30" rx="8" fill="rgba(255,255,255,0.03)" stroke="rgba(255,255,255,0.12)"/><circle cx="364" cy="519" r="2" fill="#8A8A8B"/><text x="374" y="524" font-family="Inter,'Segoe UI',Helvetica,Arial,sans-serif" font-size="13" fill="#E7E5E4">MLflow</text><rect x="435" y="504" width="83" height="30" rx="8" fill="rgba(255,255,255,0.03)" stroke="rgba(255,255,255,0.12)"/><circle cx="449" cy="519" r="2" fill="#8A8A8B"/><text x="459" y="524" font-family="Inter,'Segoe UI',Helvetica,Arial,sans-serif" font-size="13" fill="#E7E5E4">Jupyter</text><rect x="528" y="504" width="98" height="30" rx="8" fill="rgba(255,255,255,0.03)" stroke="rgba(255,255,255,0.12)"/><circle cx="542" cy="519" r="2" fill="#8A8A8B"/><text x="552" y="524" font-family="Inter,'Segoe UI',Helvetica,Arial,sans-serif" font-size="13" fill="#E7E5E4">Streamlit</text></svg>